HIERARCHY
ROOT Hips
{
	OFFSET 0.000000 0.000000 0.000000
	CHANNELS 6 Xposition Yposition Zposition Zrotation Yrotation Xrotation 
	JOINT LHipJoint
	{
		OFFSET 0.000000 0.000000 0.000000
		CHANNELS 3 Zrotation Yrotation Xrotation
		JOINT LeftUpLeg
		{
			OFFSET 1.363060 -1.794630 0.839290
			CHANNELS 3 Zrotation Yrotation Xrotation
			JOINT LeftLeg
			{
				OFFSET 2.448110 -6.726130 0.000000
				CHANNELS 3 Zrotation Yrotation Xrotation
				JOINT LeftFoot
				{
					OFFSET 2.562200 -7.039590 0.000000
					CHANNELS 3 Zrotation Yrotation Xrotation
					JOINT LeftToeBase
					{
						OFFSET 0.157640 -0.433110 2.322550
						CHANNELS 3 Zrotation Yrotation Xrotation
						End Site
						{
							OFFSET 0.000000 0.000000 0.000000
						}
					}
				}
			}
		}
	}
	JOINT RHipJoint
	{
		OFFSET 0.000000 0.000000 0.000000
		CHANNELS 3 Zrotation Yrotation Xrotation
		JOINT RightUpLeg
		{
			OFFSET -1.305520 -1.794630 0.839290
			CHANNELS 3 Zrotation Yrotation Xrotation
			JOINT RightLeg
			{
				OFFSET -2.542530 -6.985550 0.000000
				CHANNELS 3 Zrotation Yrotation Xrotation
				JOINT RightFoot
				{
					OFFSET -2.568260 -7.056230 0.000000
					CHANNELS 3 Zrotation Yrotation Xrotation
					JOINT RightToeBase
					{
						OFFSET -0.164730 -0.452590 2.363150
						CHANNELS 3 Zrotation Yrotation Xrotation
						End Site
						{
							OFFSET 0.000000 0.000000 0.000000
						}
					}
				}
			}
		}
	}
}
MOTION
Frames: 33
Frame Time: 0.008333
-10.704016 17.001853 -2.637872 5.407430 84.167547 7.300906 -10.532591 1.422945 1.393367 -11.958166 11.994551 -29.155332 -2.071168 0.488198 20.857323 1.656770 10.257884 -3.404052 0.900701 -0.000000 -17.664599 10.202298 -3.956565 -1.462641 -0.398033 -15.126945 5.019505 -0.471119 -2.684165 35.162263 -1.012381 -2.489102 19.026744 -0.829600 0.000000 -84.460800
-10.499340 16.988608 -2.632885 8.954575 84.276083 10.664305 -10.602556 1.485738 1.207101 -12.254524 12.785909 -28.952527 -2.079592 0.582798 22.026490 1.583667 9.906485 -3.358174 0.851701 -0.000000 -18.448300 10.331697 -3.918185 -1.489288 -0.965288 -15.558239 3.740307 -0.663269 -2.787857 38.036743 -1.271379 -3.801733 20.206881 -1.366000 0.000000 -81.210601
-10.297113 16.974559 -2.626591 12.454118 84.427225 14.040993 -10.644516 1.537405 1.049141 -12.526547 13.434450 -28.799766 -2.089216 0.663829 23.222918 1.518916 9.534213 -3.571982 0.758600 -0.000000 -19.202100 10.462642 -3.874915 -1.509632 -1.407185 -15.955104 2.352439 -0.807980 -2.887414 40.844918 -1.511662 -5.221198 20.735879 -1.972400 0.000000 -77.208701
-10.097303 16.960336 -2.619864 15.680741 84.577496 17.201792 -10.660145 1.581908 0.921027 -12.751804 13.937057 -28.669850 -2.098525 0.732562 24.419106 1.467558 9.179873 -4.030557 0.631900 -0.000000 -19.939000 10.591720 -3.825761 -1.524773 -1.706882 -16.294344 0.862495 -0.916182 -2.989738 43.554187 -1.721751 -6.674162 20.556256 -2.578000 0.000000 -72.822199
-9.899802 16.946514 -2.613486 18.396938 84.689175 19.900730 -10.656750 1.624068 0.822195 -12.913936 14.301905 -28.531403 -2.107122 0.790997 25.579237 1.433946 8.881139 -4.699586 0.482400 -0.000000 -20.664800 10.711959 -3.766780 -1.535991 -1.856892 -16.555647 -0.715126 -0.999559 -3.096312 46.127722 -1.895780 -8.085375 19.666690 -3.105900 0.000000 -68.363000
-9.704542 16.933669 -2.608122 20.395320 84.733253 21.919466 -10.645221 1.667745 0.749570 -13.004552 14.549373 -28.355112 -2.115128 0.841035 26.665504 1.421122 8.670171 -5.530789 0.319100 -0.000000 -21.382000 10.814613 -3.693913 -1.543300 -1.857930 -16.721616 -2.362803 -1.066140 -3.204430 48.530419 -2.032835 -9.389312 18.111600 -3.489600 -0.000001 -64.007100
-9.511400 16.922347 -2.604133 21.561023 84.692288 23.131689 -10.635752 1.714857 0.697339 -13.023372 14.707874 -28.115837 -2.122639 0.883769 27.642354 1.430443 8.570237 -6.468701 0.148400 0.000001 -22.078500 10.892812 -3.604679 -1.546165 -1.718666 -16.781863 -4.060366 -1.118277 -3.309329 50.729099 -2.135422 -10.534806 15.969615 -3.683200 -0.000000 -59.793600
-9.320317 16.912949 -2.601607 21.889676 84.560607 23.521086 -10.634760 1.766120 0.658458 -12.975510 14.809673 -27.794314 -2.129328 0.919532 28.481720 1.461425 8.593337 -7.456206 -0.025700 -0.000000 -22.744500 10.943784 -3.498609 -1.543512 -1.453537 -16.735626 -5.785066 -1.153459 -3.405619 52.692857 -2.208422 -11.489261 13.344092 -3.666700 -0.000001 -55.668700
-9.131197 16.905786 -2.600392 21.492635 84.342851 23.187495 -10.643837 1.821242 0.625097 -12.869939 14.887067 -27.377701 -2.134555 0.948069 29.164687 1.511855 8.739615 -8.439691 -0.201000 -0.000000 -23.370500 10.969339 -3.376733 -1.534848 -1.081139 -16.592751 -7.512716 -1.166335 -3.488750 54.395216 -2.258433 -12.239628 10.357286 -3.446800 0.000001 -51.531200
-8.944007 16.900961 -2.600101 20.560433 84.052755 22.310746 -10.661155 1.879268 0.590320 -12.717283 14.968565 -26.860363 -2.137523 0.968804 29.683110 1.577944 8.997130 -9.373753 -0.375300 -0.000000 -23.953700 10.974028 -3.241390 -1.520247 -0.622261 -16.373639 -9.219987 -1.151264 -3.555667 55.815697 -2.293432 -12.793543 7.145157 -3.054200 0.000000 -47.295600
-8.758679 16.898527 -2.600156 19.313399 83.710227 21.103091 -10.683770 1.938802 0.548317 -12.528143 15.077341 -26.242567 -2.137675 0.981264 30.038198 1.654535 9.342806 -10.223086 -0.546200 -0.000000 -24.499800 10.962783 -3.095511 -1.501162 -0.096899 -16.106745 -10.887721 -1.104681 -3.605243 56.943124 -2.322236 -13.177927 3.848548 -2.535600 -0.000000 -42.920601
-8.575188 16.898379 -2.599942 17.951691 83.338722 19.758851 -10.709334 1.998330 0.495321 -12.311828 15.229575 -25.531644 -2.134964 0.985470 30.240214 1.735558 9.744751 -10.964816 -0.709700 -0.000000 -25.024000 10.939190 -2.942090 -1.480156 0.477849 -15.825325 -12.503048 -1.026792 -3.637860 57.776672 -2.353892 -13.436504 0.604976 -1.945100 0.000000 -38.451700
-8.393439 16.900295 -2.598806 16.626302 82.963040 18.426115 -10.736717 2.057015 0.430275 -12.075018 15.433929 -24.739371 -2.129987 0.981989 30.305913 1.814609 10.165665 -11.588935 -0.861800 0.000000 -25.547500 10.905072 -2.784108 -1.460332 1.089418 -15.564143 -14.059897 -0.921804 -3.654831 58.326109 -2.396444 -13.622078 -2.464083 -1.332901 0.000000 -34.024500
-8.213425 16.903963 -2.596172 15.429896 82.606455 17.196947 -10.765723 2.114782 0.354125 -11.821609 15.692288 -23.880845 -2.123927 0.972045 30.256462 1.885643 10.567472 -12.096717 -0.998100 0.000000 -26.093800 10.860975 -2.623940 -1.445298 1.730447 -15.355325 -15.559008 -0.796788 -3.657951 58.611037 -2.455785 -13.787253 -5.266086 -0.737800 -0.000000 -29.821800
-8.034966 16.908989 -2.591515 14.408029 82.289206 16.119528 -10.796509 2.172352 0.269870 -11.552783 15.999867 -22.972798 -2.118322 0.957140 30.114759 1.943570 10.915137 -12.498634 -1.115500 0.000000 -26.683900 10.806833 -2.463748 -1.438504 2.398396 -15.226701 -17.006729 -0.659456 -3.649198 58.658578 -2.534849 -13.974324 -7.748056 -0.182900 -0.000000 -25.998800
-7.857994 16.914974 -2.584486 13.566406 82.026785 15.203713 -10.829231 2.230750 0.181480 -11.267756 16.345738 -22.030855 -2.114610 0.938886 29.903193 1.985046 11.182208 -12.811708 -1.212600 0.000000 -27.333000 10.742257 -2.305120 -1.443209 3.094858 -15.198452 -18.412706 -0.515964 -3.630495 58.499244 -2.633626 -14.208341 -9.901549 0.323800 0.000000 -22.620600
-7.682300 16.921443 -2.574801 12.894308 81.830383 14.442782 -10.863812 2.291181 0.094160 -10.965132 16.714957 -21.067875 -2.113760 0.918437 29.640821 2.008594 11.352736 -13.055263 -1.289800 0.000000 -28.048500 10.666824 -2.150011 -1.461174 3.823384 -15.283503 -19.787168 -0.369840 -3.603573 58.162700 -2.749584 -14.494408 -11.751929 0.784600 -0.000000 -19.663100
-7.507662 16.928021 -2.562406 12.355326 81.703985 13.807845 -10.900126 2.354324 0.011979 -10.642198 17.090003 -20.094452 -2.116291 0.896906 29.342438 2.014901 11.423710 -13.248855 -1.348900 -0.000000 -28.830000 10.579717 -1.999245 -1.494130 4.591098 -15.484697 -21.140646 -0.221648 -3.569576 57.672706 -2.878522 -14.819435 -13.348932 1.207800 0.000000 -17.005900
-7.333820 16.934334 -2.547368 11.917754 81.647507 13.271995 -10.937788 2.420808 -0.060519 -10.298142 17.452977 -19.116114 -2.121868 0.874647 29.016789 2.006364 11.403976 -13.408423 -1.392600 0.000000 -29.670000 10.480271 -1.854476 -1.541184 5.403512 -15.796696 -22.479487 -0.070259 -3.529135 57.044699 -3.015058 -15.157942 -14.742493 1.600500 -0.000000 -14.559700
-7.160513 16.940080 -2.529782 11.544549 81.654452 12.803298 -10.976362 2.490736 -0.120551 -9.932828 17.788333 -18.135737 -2.129747 0.851844 28.666897 1.986770 11.312614 -13.546057 -1.424400 -0.000000 -30.556100 10.367770 -1.716763 -1.600735 6.266443 -16.205948 -23.806406 0.086405 -3.482121 56.284012 -3.153092 -15.477091 -15.974348 1.966300 -0.000000 -12.259500
-6.987481 16.945047 -2.509838 11.202371 81.714344 12.372568 -11.015329 2.564162 -0.166463 -9.548268 18.084289 -17.152591 -2.138778 0.828360 28.290385 1.960561 11.175198 -13.668367 -1.447200 0.000000 -31.473100 10.241803 -1.587335 -1.669810 7.183316 -16.693485 -25.118751 0.250269 -3.427716 55.386525 -3.286597 -15.745203 -17.068252 2.302899 0.000000 -10.109200
-6.814437 16.949084 -2.487719 10.870315 81.813683 11.961564 -11.054041 2.640978 -0.198261 -9.148370 18.334803 -16.163983 -2.147740 0.803890 27.880826 1.932297 11.020312 -13.777454 -1.463700 -0.000000 -32.405401 10.102514 -1.467356 -1.744659 8.154737 -17.236823 -26.408940 0.422487 -3.364558 54.341429 -3.410099 -15.936711 -18.029647 2.602600 0.000000 -8.172300
-6.641193 16.952092 -2.463545 10.537300 81.937500 11.559029 -11.091907 2.721188 -0.217415 -8.738323 18.540514 -15.164956 -2.155468 0.778143 27.429879 1.905742 10.873908 -13.870537 -1.476101 -0.000000 -33.339600 9.950716 -1.358035 -1.821085 9.177450 -17.812839 -27.663310 0.603071 -3.290790 53.133765 -3.519670 -16.038677 -18.849298 2.854600 0.000000 -6.548200
-6.467561 16.954045 -2.437369 10.211695 82.070861 11.172087 -11.128337 2.804821 -0.226716 -8.324338 18.707920 -14.149742 -2.161041 0.750844 26.929106 1.883734 10.757445 -13.941903 -1.485400 -0.000001 -34.266100 9.787928 -1.260447 -1.894917 10.244741 -18.399617 -28.865037 0.790946 -3.204358 51.748634 -3.613468 -16.052703 -19.511095 3.048500 0.000000 -5.340900
-6.293453 16.954896 -2.409145 9.919678 82.200793 10.823878 -11.162933 2.891757 -0.230081 -7.912691 18.848508 -13.112950 -2.163885 0.721878 26.372177 1.867597 10.683534 -13.983359 -1.491700 0.000000 -35.181300 9.616292 -1.175296 -1.962434 11.345702 -18.977783 -29.995201 0.984107 -3.103206 50.174810 -3.692275 -15.995662 -20.000861 3.178400 -0.000000 -4.626999
-6.118767 16.954644 -2.378768 9.703458 82.317078 10.552731 -11.195633 2.981874 -0.232066 -7.509040 18.977555 -12.049290 -2.163770 0.691278 25.756112 1.857184 10.655489 -13.985555 -1.493700 0.000000 -36.087100 9.438307 -1.103073 -2.020574 12.466290 -19.531929 -31.034669 1.179984 -2.985513 48.407948 -3.759214 -15.895817 -20.313146 3.244800 -0.000000 -4.432701
-5.943557 16.953244 -2.346064 9.619451 82.413035 10.410226 -11.226774 3.074799 -0.237276 -7.117178 19.110966 -10.954748 -2.160671 0.659296 25.082929 1.851003 10.667657 -13.938717 -1.489300 -0.000000 -36.991200 9.256551 -1.043885 -2.067010 13.590321 -20.050308 -31.966093 1.375739 -2.849819 46.452321 -3.819434 -15.788365 -20.456145 3.254900 -0.000000 -4.726000
-5.767837 16.950643 -2.310862 9.734333 82.486229 10.458439 -11.256872 3.169881 -0.249883 -6.740739 19.263116 -9.827427 -2.154762 0.626269 24.359368 1.846435 10.706233 -13.833428 -1.475100 -0.000001 -37.904800 9.073704 -0.997355 -2.099911 14.698599 -20.524453 -32.777345 1.568533 -2.695464 44.324220 -3.878960 -15.707782 -20.453345 3.221500 -0.000000 -5.414200
-5.591660 16.946784 -2.273066 10.082890 82.536179 10.729847 -11.286833 3.266167 -0.273951 -6.376872 19.447131 -8.669644 -2.146431 0.593171 23.599657 1.840025 10.750982 -13.662339 -1.447600 -0.000000 -38.843000 8.892031 -0.962472 -2.118406 15.776117 -20.946039 -33.460142 1.755640 -2.522012 42.047351 -3.944063 -15.684202 -20.339107 3.159300 -0.000000 -6.376300
-5.415112 16.941572 -2.232493 10.723286 82.566958 11.280321 -11.316568 3.362542 -0.311253 -6.027293 19.667427 -7.484009 -2.135650 0.560498 22.820051 1.828605 10.782312 -13.418977 -1.403500 -0.000000 -39.818600 8.714455 -0.938157 -2.121054 16.802249 -21.310538 -34.015568 1.934798 -2.330758 39.660098 -4.019072 -15.732644 -20.158899 3.084201 0.000000 -7.443000
-5.238229 16.934923 -2.189234 11.637400 82.581483 12.093373 -11.345781 3.457823 -0.363226 -5.684891 19.926854 -6.280333 -2.122653 0.529707 22.043852 1.808961 10.778888 -13.100383 -1.340400 0.000000 -40.846501 8.543756 -0.922583 -2.106875 17.765140 -21.608164 -34.446390 2.103544 -2.122932 37.202698 -4.106849 -15.859054 -19.954466 3.009100 -0.000001 -8.485201
-5.061012 16.926808 -2.143340 12.797651 82.583686 13.144641 -11.372923 3.550915 -0.429338 -5.344196 20.220097 -5.070148 -2.107318 0.502206 21.295479 1.778952 10.724968 -12.705403 -1.257300 -0.000000 -41.938500 8.383385 -0.913638 -2.074383 18.652538 -21.828138 -34.761310 2.259553 -1.901021 34.720933 -4.207509 -16.055622 -19.762604 2.943900 -0.000000 -9.397100
-4.883420 16.917230 -2.094972 14.158982 82.576316 14.393166 -11.395488 3.641176 -0.507124 -5.001253 20.535102 -3.866418 -2.089261 0.479515 20.598827 1.737741 10.612130 -12.234853 -1.154901 0.000000 -43.103801 8.237291 -0.909169 -2.022184 19.453374 -21.960339 -34.971125 2.400570 -1.668626 32.262864 -4.318155 -16.302927 -19.608601 2.894400 -0.000000 -10.121300
